<svg width="52" height="48" viewBox="0 0 52 48" fill="none" xmlns="http://www.w3.org/2000/svg">
<g clip-path="url(#clip0_8_216)">
<path d="M36.3964 27.6638C32.0787 28.8403 27.8863 30.3205 24.3388 33.2228C22.4676 34.7533 20.9936 36.5905 20.536 39.0519C20.3608 39.9964 20.3835 40.9807 20.3488 41.9466C20.2838 43.7609 19.1663 45.4181 17.505 46.0514C15.6671 46.7518 14.0209 46.3886 12.6134 45.0183C11.81 44.2355 11.4007 43.2406 11.3161 42.119C11.008 38.0097 11.449 33.9934 12.8188 30.0961C12.8445 30.0244 12.8686 29.9527 12.8837 29.8795C12.8913 29.8459 12.8747 29.8062 12.8611 29.7147C12.5923 29.7147 12.3159 29.7147 12.0395 29.7147C9.64732 29.7147 7.25512 29.7147 4.86293 29.7147C2.44959 29.7147 0.619202 28.3505 0.123848 26.205C-0.415302 23.8657 0.903126 21.6607 2.84376 20.9023C2.87699 20.8901 2.90115 20.8566 2.97515 20.7955C2.27894 19.5717 2.03277 18.2609 2.49188 16.8784C2.94947 15.4975 3.87524 14.5514 5.25106 13.9853C4.53521 12.7157 4.29659 11.4049 4.75268 10.0224C5.20877 8.63836 6.14813 7.706 7.44994 7.15056C7.25512 6.57833 7.00745 6.0412 6.89116 5.4766C6.32483 2.71312 8.38024 0.0457802 11.1711 0.0381508C16.4252 0.0244179 21.6808 0.0488319 26.9333 0.15107C29.6955 0.204475 32.3596 0.959816 35.016 1.67243C35.4857 1.79908 35.9584 1.91658 36.4553 2.04476C37.2799 0.439472 38.627 -0.0259399 40.3154 0.00305176C43.724 0.061039 47.1341 0.0198364 50.5442 0.0213623C51.6255 0.0213623 52.0015 0.404377 52.0015 1.50153C52.0015 10.4084 52.0015 19.3169 52.0015 28.2238C52.0015 29.35 51.6315 29.7177 50.5019 29.7177C47.1114 29.7177 43.721 29.7177 40.3305 29.7177C38.1966 29.7177 37.6318 29.4263 36.3994 27.6668L36.3964 27.6638ZM36.1744 25.3138V24.6485C36.1744 18.4044 36.1744 12.1618 36.1744 5.9176C36.1744 5.40488 36.3375 4.75331 36.0898 4.42065C35.8452 4.09258 35.1776 4.07732 34.6913 3.94151C31.5093 3.05341 28.2971 2.32859 24.9731 2.31638C20.4515 2.29959 15.9298 2.29959 11.4082 2.30265C10.0415 2.30265 9.03417 3.29908 9.04474 4.60529C9.05531 5.88708 10.0536 6.85606 11.3916 6.86674C12.3899 6.87437 13.3881 6.86674 14.3864 6.86826C15.3001 6.86979 15.8302 7.30011 15.8211 8.02645C15.812 8.73297 15.294 9.15107 14.4121 9.15107C12.6602 9.1526 10.9084 9.14649 9.15649 9.15412C7.7837 9.16023 6.7794 10.1384 6.78394 11.4461C6.78846 12.7569 7.78672 13.7106 9.17311 13.7197C10.1155 13.7258 11.0564 13.7197 11.9987 13.7197C12.1301 13.7197 12.263 13.7152 12.3944 13.7213C13.0801 13.7548 13.5618 14.2264 13.5603 14.8627C13.5603 15.499 13.0785 15.9919 12.3929 15.9964C10.5852 16.0102 8.77592 15.9995 6.96667 16.0041C5.538 16.0071 4.52615 16.9563 4.52313 18.2838C4.52011 19.6099 5.53649 20.5666 6.95761 20.5727C8.03138 20.5773 9.10514 20.559 10.1789 20.5819C10.8298 20.5956 11.2935 21.0916 11.2995 21.7065C11.3055 22.3215 10.8419 22.8052 10.1985 22.8525C10.049 22.8632 9.8965 22.8571 9.74699 22.8571C8.01326 22.8571 6.28103 22.8494 4.54729 22.8617C3.53394 22.8678 2.69727 23.4797 2.38617 24.3998C1.87118 25.9242 2.97213 27.4227 4.63036 27.4257C9.41625 27.4334 14.2006 27.4257 18.9865 27.4288C19.8202 27.4288 20.3306 27.8576 20.3442 28.5473C20.3578 29.2584 19.8323 29.707 18.9729 29.7101C17.9551 29.7131 16.9372 29.736 15.9208 29.6994C15.504 29.6841 15.3137 29.8398 15.1929 30.2106C15.0011 30.8057 14.7594 31.3871 14.5782 31.9853C13.6132 35.1531 13.3851 38.4003 13.5573 41.6948C13.6328 43.1353 14.5676 44.1317 15.883 44.1028C17.1652 44.0738 18.0623 43.0529 18.094 41.6384C18.1151 40.7091 18.1136 39.766 18.2647 38.8535C18.7253 36.0656 20.2325 33.8698 22.2728 32.0188C25.0682 29.4827 28.3786 27.8698 31.8914 26.6445C33.2914 26.1562 34.7231 25.7594 36.1759 25.3093L36.1744 25.3138ZM49.7015 27.4288V2.30112C49.4779 2.30112 49.2922 2.30112 49.1064 2.30112C46.0543 2.30112 43.0021 2.30112 39.9515 2.30112C38.7916 2.30112 38.4352 2.66277 38.4352 3.83774C38.4352 11.1852 38.4352 18.5326 38.4352 25.88C38.4352 26.0127 38.4307 26.147 38.4382 26.2798C38.479 26.9634 38.9139 27.4227 39.5981 27.4242C42.9508 27.4349 46.3019 27.4288 49.7015 27.4288Z" fill="#E81D0E"/>
<path d="M42.9568 12.5844C42.9568 14.028 42.9598 15.4715 42.9568 16.915C42.9553 17.7543 42.5339 18.2716 41.8558 18.2884C41.1566 18.3067 40.7005 17.7696 40.699 16.912C40.696 14.0249 40.696 11.1363 40.699 8.24923C40.699 7.41149 41.1234 6.89114 41.8015 6.87435C42.5007 6.85604 42.9553 7.39165 42.9568 8.25076C42.9598 9.6943 42.9568 11.1378 42.9568 12.5814V12.5844Z" fill="#E81D0E"/>
</g>
<defs>
<clipPath id="clip0_8_216">
<rect width="52" height="47.75" fill="white" transform="matrix(-1 0 0 -1 52 47.75)"/>
</clipPath>
</defs>
</svg>
