<svg width="52" height="59" viewBox="0 0 52 59" fill="none" xmlns="http://www.w3.org/2000/svg">
<g clip-path="url(#clip0_8_212)">
<path d="M36.5142 0.25C37.1228 0.585707 37.3358 1.09537 37.3176 1.79883C37.2784 3.33545 37.3086 4.8736 37.304 6.41022C37.3025 7.26628 36.8449 7.80341 36.1457 7.78357C35.4676 7.76526 35.0478 7.24644 35.0447 6.4087C35.0417 4.87055 35.0719 3.3324 35.0312 1.7973C35.013 1.09385 35.2245 0.584181 35.8346 0.25H36.5127H36.5142Z" fill="#FC9B32"/>
<path d="M15.6036 31.0862C19.9213 29.9097 24.1137 28.4295 27.6612 25.5272C29.5324 23.9967 31.0064 22.1595 31.464 19.6981C31.6392 18.7536 31.6165 17.7693 31.6512 16.8034C31.7162 14.9891 32.8337 13.3319 34.495 12.6986C36.3329 11.9982 37.9791 12.3614 39.3866 13.7317C40.19 14.5145 40.5993 15.5094 40.6839 16.631C40.992 20.7403 40.551 24.7566 39.1812 28.6539C39.1555 28.7256 39.1314 28.7973 39.1163 28.8705C39.1087 28.9041 39.1253 28.9438 39.1389 29.0353C39.4077 29.0353 39.6841 29.0353 39.9605 29.0353C42.3527 29.0353 44.7449 29.0353 47.1371 29.0353C49.5504 29.0353 51.3808 30.3995 51.8762 32.545C52.4153 34.8843 51.0969 37.0893 49.1562 37.8477C49.123 37.8599 49.0989 37.8934 49.0248 37.9545C49.7211 39.1783 49.9672 40.4891 49.5081 41.8716C49.0505 43.2525 48.1248 44.1986 46.7489 44.7647C47.4648 46.0343 47.7034 47.3451 47.2473 48.7276C46.7912 50.1116 45.8519 51.044 44.5501 51.5994C44.7449 52.1717 44.9926 52.7088 45.1088 53.2734C45.6752 56.0369 43.6198 58.7042 40.8289 58.7118C35.5748 58.7256 30.3192 58.7012 25.0667 58.5989C22.3045 58.5455 19.6404 57.7902 16.984 57.0776C16.5143 56.9509 16.0416 56.8334 15.5447 56.7052C14.7201 58.3105 13.373 58.7759 11.6846 58.7469C8.27601 58.689 4.86592 58.7302 1.45584 58.7286C0.37452 58.7286 -0.00152588 58.3456 -0.00152588 57.2485C-0.00152588 48.3416 -0.00152588 39.4331 -0.00152588 30.5262C-0.00152588 29.4 0.368479 29.0323 1.49813 29.0323C4.88858 29.0323 8.27903 29.0323 11.6695 29.0323C13.8034 29.0323 14.3682 29.3237 15.6006 31.0832L15.6036 31.0862ZM15.8256 33.4362V34.1015C15.8256 40.3456 15.8256 46.5882 15.8256 52.8324C15.8256 53.3451 15.6625 53.9967 15.9102 54.3293C16.1548 54.6574 16.8224 54.6727 17.3087 54.8085C20.4907 55.6966 23.7029 56.4214 27.0269 56.4336C31.5485 56.4504 36.0702 56.4504 40.5918 56.4474C41.9585 56.4474 42.9658 55.4509 42.9553 54.1447C42.9447 52.8629 41.9464 51.8939 40.6084 51.8833C39.6101 51.8756 38.6119 51.8833 37.6136 51.8817C36.6999 51.8802 36.1698 51.4499 36.1789 50.7235C36.188 50.017 36.706 49.5989 37.5879 49.5989C39.3398 49.5974 41.0916 49.6035 42.8435 49.5959C44.2163 49.5898 45.2206 48.6116 45.2161 47.3039C45.2115 45.9931 44.2133 45.0394 42.8269 45.0303C41.8845 45.0242 40.9436 45.0303 40.0013 45.0303C39.8699 45.0303 39.737 45.0348 39.6056 45.0287C38.9199 44.9952 38.4382 44.5236 38.4397 43.8873C38.4397 43.251 38.9215 42.7581 39.6071 42.7536C41.4148 42.7398 43.2241 42.7505 45.0333 42.7459C46.462 42.7429 47.4739 41.7937 47.4769 40.4662C47.4799 39.1401 46.4635 38.1834 45.0424 38.1773C43.9686 38.1727 42.8949 38.191 41.8211 38.1681C41.1702 38.1544 40.7065 37.6584 40.7005 37.0435C40.6945 36.4285 41.1581 35.9448 41.8015 35.8975C41.951 35.8868 42.1035 35.8929 42.253 35.8929C43.9867 35.8929 45.719 35.9006 47.4527 35.8883C48.4661 35.8822 49.3027 35.2703 49.6138 34.3502C50.1288 32.8258 49.0279 31.3273 47.3696 31.3243C42.5837 31.3166 37.7994 31.3243 33.0135 31.3212C32.1798 31.3212 31.6694 30.8924 31.6558 30.2027C31.6422 29.4916 32.1677 29.043 33.0271 29.0399C34.0449 29.0369 35.0628 29.014 36.0792 29.0506C36.496 29.0659 36.6863 28.9102 36.8071 28.5394C36.9989 27.9443 37.2406 27.3629 37.4218 26.7647C38.3868 23.5969 38.6149 20.3497 38.4427 17.0552C38.3672 15.6147 37.4324 14.6183 36.117 14.6472C34.8348 14.6762 33.9377 15.6971 33.906 17.1116C33.8849 18.0409 33.8864 18.984 33.7353 19.8965C33.2747 22.6844 31.7675 24.8802 29.7272 26.7312C26.9318 29.2673 23.6214 30.8802 20.1086 32.1055C18.7086 32.5938 17.2769 32.9906 15.8241 33.4407L15.8256 33.4362ZM2.29854 31.3212V56.4489C2.52206 56.4489 2.70781 56.4489 2.89357 56.4489C5.94573 56.4489 8.99789 56.4489 12.0485 56.4489C13.2084 56.4489 13.5648 56.0872 13.5648 54.9123C13.5648 47.5648 13.5648 40.2174 13.5648 32.87C13.5648 32.7373 13.5693 32.603 13.5618 32.4702C13.521 31.7866 13.0861 31.3273 12.4019 31.3258C9.04924 31.3151 5.69806 31.3212 2.29854 31.3212Z" fill="#FC9B32"/>
<path d="M30.8901 9.14928C30.8992 9.78712 30.6817 10.1533 30.2483 10.3471C29.7741 10.5592 29.3225 10.4692 28.9495 10.0969C28.1868 9.33392 27.4287 8.56637 26.6706 7.79882C26.364 7.48905 26.0453 7.1915 25.7614 6.86189C25.3355 6.36749 25.3521 5.75864 25.772 5.31459C26.2054 4.85528 26.8624 4.79882 27.3411 5.26576C28.4526 6.34765 29.5385 7.45854 30.6138 8.57858C30.7829 8.75406 30.8403 9.03941 30.8931 9.15233L30.8901 9.14928Z" fill="#FC9B32"/>
<path d="M42.7287 10.4448C42.105 10.454 41.7441 10.2296 41.5538 9.79169C41.3454 9.31255 41.436 8.85629 41.8075 8.48091C42.8435 7.42801 43.8841 6.38122 44.9231 5.33137C44.9624 5.29169 45.0092 5.2566 45.053 5.2215C45.5438 4.84307 46.1207 4.8629 46.542 5.27338C46.9785 5.69759 47.0555 6.3507 46.6176 6.81306C45.5242 7.96667 44.3945 9.08671 43.2603 10.1991C43.1003 10.3563 42.8299 10.4005 42.7287 10.4448Z" fill="#FC9B32"/>
<path d="M24.8538 16.9255C24.1394 16.9255 23.4266 16.9347 22.7138 16.9224C21.9859 16.9102 21.492 16.4479 21.4845 15.7948C21.4769 15.1417 21.9723 14.6518 22.6896 14.6457C24.1349 14.6335 25.5817 14.6351 27.027 14.6457C27.7534 14.6503 28.2503 15.1203 28.2578 15.7719C28.2654 16.4433 27.7564 16.9148 26.9953 16.924C26.2824 16.9331 25.5681 16.9255 24.8538 16.9255Z" fill="#FC9B32"/>
<path d="M47.5101 14.6427C48.2244 14.6427 48.9373 14.6335 49.6501 14.6457C50.3705 14.6579 50.8673 15.1355 50.8658 15.7871C50.8643 16.4387 50.3674 16.9178 49.6455 16.9224C48.2003 16.9331 46.7535 16.9331 45.3082 16.9224C44.5863 16.9163 44.0925 16.4341 44.094 15.781C44.0955 15.1279 44.5908 14.6579 45.3142 14.6457C46.0467 14.6335 46.7791 14.6427 47.5116 14.6427H47.5101Z" fill="#FC9B32"/>
<path d="M9.04321 46.1656C9.04321 44.722 9.04019 43.2785 9.04321 41.835C9.04472 40.9957 9.46607 40.4784 10.1442 40.4616C10.8434 40.4433 11.2995 40.9804 11.301 41.838C11.304 44.7251 11.304 47.6137 11.301 50.5008C11.301 51.3385 10.8766 51.8589 10.1985 51.8756C9.4993 51.894 9.04472 51.3583 9.04321 50.4992C9.04019 49.0557 9.04321 47.6122 9.04321 46.1686V46.1656Z" fill="#FC9B32"/>
</g>
<defs>
<clipPath id="clip0_8_212">
<rect width="52" height="58.5" fill="white" transform="translate(0 0.25)"/>
</clipPath>
</defs>
</svg>
