<svg width="426" height="241" viewBox="0 0 426 241" fill="none" xmlns="http://www.w3.org/2000/svg">
<path d="M425.2 0.100006L372.8 134.4C369.4 143.1 361 148.9 351.6 148.9C342.3 148.9 333.9 143.2 330.5 134.6L276.7 0.100006C276.7 0.100006 293.3 0.100006 305.7 0.100006C313.8 0.100006 321.1 5.1 324 12.7C333.3 37.2 353 88.9 353 88.9L385.3 0L425.2 0.100006Z" fill="black"/>
<path d="M267.3 0.100006L282.5 37.9H236.1V148.9H195.9V37.9H143V0.100006H267.3Z" fill="black"/>
<path d="M135.1 0.100006H94.8C94.8 0.100006 94.8 18.9 94.8 86.9C94.8 103.2 81.3 114.1 67.5 114.1C48.6 114.1 40.3 98.2 40.3 86.9C40.3 53.4 40.3 32.8 40.3 20.2C40.3 9.1 31.3 0.100006 20.2 0.100006C10.1 0.100006 0 0.100006 0 0.100006V74.4C0 126 24.5 151.9 69.9 151.9C107.7 151.9 135.1 130 135.1 76.1V0.100006Z" fill="black"/>
<path d="M383.8 240.1H0.5V200.6C0.5 186.2 12.2 174.5 26.6 174.5H409.8V214C409.9 228.4 398.2 240.1 383.8 240.1Z" fill="#00B0E1"/>
<path d="M26.9 190.3H40.4C47.9 190.3 54.3 192.6 54.3 201.1C54.3 209.1 47.5 211.9 40 211.9H32.4V228.8H26.8V190.3H26.9ZM41.2 207.2C41.9 207.2 48.4 207.5 48.4 201C48.4 194.5 41.8 194.8 41.2 194.8H32.5V207.2H41.2Z" fill="white"/>
<path d="M66.4 211.3V228.7H60.8V190.3H75.2C81.9 190.3 88.9 192.3 88.9 199.9C88.9 204.5 86 208.1 81.3 209.2V209.3C86.1 210.4 86.8 212.9 87.4 217.2C88 221 88.5 225.1 89.9 228.8H83.9C83.4 226.5 82.7 224 82.5 221.7C82.1 218.2 82 215.1 80.2 213.2C78.6 211.4 76.4 211.4 74.1 211.4H66.4V211.3ZM66.3 206.8H75.5C81.7 206.8 83.1 203.9 83.1 200.8C83.1 197.8 81.7 194.8 75.5 194.8H66.3V206.8Z" fill="white"/>
<path d="M114.9 189.5C127.4 189.5 133.3 198.3 133.3 209.5C133.3 220.7 127.5 229.5 114.9 229.5C102.4 229.5 96.5 220.7 96.5 209.5C96.5 198.3 102.3 189.5 114.9 189.5ZM114.9 224.9C125.1 224.9 127.4 217.4 127.4 209.5C127.4 201.3 125.1 194.1 114.9 194.1C104.7 194.1 102.4 201.3 102.4 209.5C102.3 217.5 104.7 224.9 114.9 224.9Z" fill="white"/>
<path d="M141.7 190.3H155.1C158.8 190.3 162.8 190.7 166 192.6C171.8 196.2 174.5 202.2 174.5 209.5C174.5 216.8 171.8 222.8 166 226.4C162.8 228.4 158.8 228.7 155.1 228.7H141.7V190.3ZM147.3 224.1H155.4C161 224.1 164 221.9 165.6 219.7C168 216.4 168.7 213 168.7 209.4C168.7 205.8 168 202.4 165.6 199.1C164 196.9 161 194.7 155.4 194.7H147.3V224.1Z" fill="white"/>
<path d="M214.7 213.5C214.7 223.4 209.4 229.5 198.5 229.5C187.6 229.5 182.3 223.4 182.3 213.5V190.3H187.9V214.8C187.9 221.4 192.2 225 198.5 225C204.9 225 209.1 221.4 209.1 214.8V190.3H214.7V213.5Z" fill="white"/>
<path d="M249.4 200.2C249.1 196.5 245 194.1 240.9 194.1C231 194.1 229.1 202.8 229.1 209.5C229.1 217.4 231.6 224.9 240.4 224.9C244.7 224.9 248.6 222.9 249.3 218.8H255.1C254.5 225.2 247.7 229.5 239.9 229.5C228 229.5 223.3 220.2 223.3 209.5C223.3 204.1 224.6 198.5 228.1 194.5C230.8 191.6 234.7 189.4 240.5 189.4C248.5 189.4 254.6 193.2 255.2 200.1H249.4V200.2Z" fill="white"/>
<path d="M271.6 194.8H258.1V190.2H290.6V194.8H277.1V228.7H271.5V194.8H271.6Z" fill="white"/>
<path d="M296.3 228.7V190.3H301.9V228.7H296.3Z" fill="white"/>
<path d="M328.5 189.5C341 189.5 346.9 198.3 346.9 209.5C346.9 220.7 341.1 229.5 328.5 229.5C316 229.5 310.1 220.7 310.1 209.5C310.1 198.3 316 189.5 328.5 189.5ZM328.5 224.9C338.7 224.9 341 217.4 341 209.5C341 201.3 338.7 194.1 328.5 194.1C318.3 194.1 316 201.3 316 209.5C316 217.5 318.3 224.9 328.5 224.9Z" fill="white"/>
<path d="M388 190.3V228.7H381.1L360.7 196.1H360.6V228.7H355.6V190.3H363.2L382.8 222.1H382.9V190.3H388Z" fill="white"/>
</svg>
