<svg width="317" height="120" viewBox="0 0 317 120" fill="none" xmlns="http://www.w3.org/2000/svg">
<path d="M316.405 0.0748698L277.412 100.619C274.882 107.132 268.631 111.475 261.637 111.475C254.716 111.475 248.465 107.207 245.935 100.769L205.901 0.0748698C205.901 0.0748698 218.254 0.0748698 227.481 0.0748698C233.508 0.0748698 238.941 3.81813 241.099 9.5079C248.019 27.8499 262.678 66.5553 262.678 66.5553L286.714 0L316.405 0.0748698Z" fill="url(#paint0_linear_8_123)"/>
<path d="M198.906 0.0748596L210.217 28.374H175.689V111.475H145.775V28.374H106.411V0.0748596H198.906Z" fill="url(#paint1_linear_8_123)"/>
<path d="M100.532 0.0748596H70.5437C70.5437 0.0748596 70.5437 14.1495 70.5437 65.058C70.5437 77.2611 60.4979 85.4214 50.2289 85.4214C36.1648 85.4214 29.9885 73.5178 29.9885 65.058C29.9885 39.9781 29.9885 24.5558 29.9885 15.1228C29.9885 6.81274 23.2913 0.0748596 15.0315 0.0748596C7.51573 0.0748596 0 0.0748596 0 0.0748596V55.6998C0 94.3304 18.2312 113.72 52.0148 113.72C80.143 113.72 100.532 97.325 100.532 56.9725V0.0748596Z" fill="url(#paint2_linear_8_123)"/>
<defs>
<linearGradient id="paint0_linear_8_123" x1="261.153" y1="0" x2="261.153" y2="111.475" gradientUnits="userSpaceOnUse">
<stop stop-color="#E81D0E"/>
<stop offset="1" stop-color="#FC9B32"/>
</linearGradient>
<linearGradient id="paint1_linear_8_123" x1="158.314" y1="0.0748596" x2="158.314" y2="111.475" gradientUnits="userSpaceOnUse">
<stop stop-color="#E81D0E"/>
<stop offset="1" stop-color="#FC9B32"/>
</linearGradient>
<linearGradient id="paint2_linear_8_123" x1="50.2661" y1="0.0748596" x2="50.2661" y2="113.72" gradientUnits="userSpaceOnUse">
<stop stop-color="#E81D0E"/>
<stop offset="1" stop-color="#FC9B32"/>
</linearGradient>
</defs>
</svg>
